<svg width="1200" height="6" fill="none" xmlns="http://www.w3.org/2000/svg"><circle cx="266" cy="3" r="3" fill="#C4C4C4"/><circle cx="292" cy="3" r="3" fill="#C4C4C4"/><circle cx="240" cy="3" r="3" fill="#C4C4C4"/><circle cx="214" cy="3" r="3" fill="#C4C4C4"/><circle cx="188" cy="3" r="3" fill="#C4C4C4"/><circle cx="505.989" cy="3" r="3" fill="#C4C4C4"/><circle cx="531.989" cy="3" r="3" fill="#C4C4C4"/><circle cx="479.989" cy="3" r="3" fill="#C4C4C4"/><circle cx="453.989" cy="3" r="3" fill="#C4C4C4"/><circle cx="427.989" cy="3" r="3" fill="#C4C4C4"/><circle cx="745.989" cy="3" r="3" fill="#C4C4C4"/><circle cx="771.989" cy="3" r="3" fill="#C4C4C4"/><circle cx="719.989" cy="3" r="3" fill="#C4C4C4"/><circle cx="693.989" cy="3" r="3" fill="#C4C4C4"/><circle cx="667.989" cy="3" r="3" fill="#C4C4C4"/><circle cx="985.961" cy="3" r="3" fill="#C4C4C4"/><circle cx="1011.96" cy="3" r="3" fill="#C4C4C4"/><circle cx="959.961" cy="3" r="3" fill="#C4C4C4"/><circle cx="933.961" cy="3" r="3" fill="#C4C4C4"/><circle cx="907.961" cy="3" r="3" fill="#C4C4C4"/></svg>